<svg width="381" height="381" viewBox="0 0 381 381" fill="none" xmlns="http://www.w3.org/2000/svg">
<circle cx="190.5" cy="190.5" r="190.5" fill="url(#paint0_linear_21_537)"/>
<path d="M139.912 122.637H57.3638C54.8182 122.637 53 124.455 53 126.637V209.186C53 230.641 70.0915 247.732 91.1831 247.732H173.731C175.913 247.732 178.095 245.914 178.095 243.369V160.82C178.095 139.729 161.004 122.637 139.912 122.637Z" fill="white"/>
<path d="M313.736 95H231.187C210.096 95 193.004 112.091 193.004 133.183V215.731C193.004 217.913 194.823 220.095 197.368 220.095H279.916C301.008 220.095 318.1 203.004 318.1 181.912V99.3638C318.1 96.8182 316.281 95 313.736 95Z" fill="white"/>
<path d="M258.825 237.187H210.096C200.641 237.187 193.004 244.823 193.004 254.278V303.007C193.004 305.189 194.823 307.371 197.368 307.371H246.097C255.552 307.371 263.189 299.734 263.189 290.279V241.187C262.825 239.005 261.007 237.187 258.825 237.187Z" fill="white"/>
<path d="M167.55 264.46H137.731C136.64 264.46 135.549 265.551 135.549 266.642V296.461C135.549 302.28 140.276 307.007 146.095 307.007H175.914C177.005 307.007 178.096 305.916 178.096 304.825V275.006C178.096 269.551 173.368 264.46 167.55 264.46Z" fill="white"/>
<defs>
<linearGradient id="paint0_linear_21_537" x1="190.5" y1="0" x2="190.5" y2="381" gradientUnits="userSpaceOnUse">
<stop stop-color="#86E752"/>
<stop offset="1" stop-color="#2BAA81"/>
</linearGradient>
</defs>
</svg>
